<svg width="27" height="27" viewBox="0 0 27 27" fill="none" xmlns="http://www.w3.org/2000/svg">
<g id="Group 4">
<path id="Vector" d="M19.2578 3.69627L20.1922 2.09436C20.4592 1.4269 20.3257 0.625953 19.6583 0.225477C18.9908 -0.0415071 18.1898 0.091985 17.7894 0.759445L16.9884 2.22786C17.7894 2.49484 18.5903 3.02881 19.2578 3.69627ZM8.04446 3.69627C8.71192 3.02881 9.37938 2.62833 10.3138 2.22786L9.51287 0.759445C9.11239 0.091985 8.31144 -0.0415071 7.64398 0.225477C6.97652 0.492461 6.84303 1.4269 7.11001 2.09436L8.04446 3.69627ZM5.6416 9.43642H21.6606V12.1063H5.6416V9.43642Z" fill="white"/>
<path id="Vector_2" opacity="0.5" d="M13.651 1.42697C9.24572 1.42697 5.64144 5.03126 5.64144 9.43649H21.6605C21.6605 5.03126 18.0562 1.42697 13.651 1.42697ZM25.6652 9.43649C24.8643 9.43649 24.3303 9.97046 24.3303 10.7714V16.1111C24.3303 16.912 24.8643 17.446 25.6652 17.446C26.4662 17.446 27.0002 16.912 27.0002 16.1111V10.7714C27.0002 9.97046 26.4662 9.43649 25.6652 9.43649ZM1.63668 9.43649C0.835726 9.43649 0.301758 9.97046 0.301758 10.7714V16.1111C0.301758 16.912 0.835726 17.446 1.63668 17.446C2.43763 17.446 2.9716 16.912 2.9716 16.1111V10.7714C2.9716 9.97046 2.43763 9.43649 1.63668 9.43649ZM5.64144 20.1159C5.64144 20.9168 6.17541 21.4508 6.97636 21.4508H9.6462V25.4555C9.6462 26.2565 10.1802 26.7905 10.9811 26.7905C11.7821 26.7905 12.316 26.2565 12.316 25.4555V21.4508H14.9859V25.4555C14.9859 26.2565 15.5198 26.7905 16.3208 26.7905C17.1217 26.7905 17.6557 26.2565 17.6557 25.4555V21.4508H20.3256C21.1265 21.4508 21.6605 20.9168 21.6605 20.1159V12.1063H5.64144V20.1159Z" fill="white"/>
</g>
</svg>
