<svg width="59" height="59" viewBox="0 0 59 59" fill="none" xmlns="http://www.w3.org/2000/svg">
<g id="Group 4">
<path id="Vector" d="M41.5183 8.64378L43.5557 5.15105C44.1378 3.69574 43.8468 1.94938 42.3915 1.0762C40.9362 0.494074 39.1898 0.785135 38.3166 2.24044L36.5703 5.44211C38.3166 6.02423 40.063 7.18848 41.5183 8.64378ZM17.0692 8.64378C18.5245 7.18848 19.9798 6.31529 22.0172 5.44211L20.2708 2.24044C19.3977 0.785135 17.6513 0.494074 16.196 1.0762C14.7407 1.65832 14.4496 3.69574 15.0317 5.15105L17.0692 8.64378ZM11.8301 21.1594H46.7574V26.9806H11.8301V21.1594Z" fill="#FEA918"/>
<path id="Vector_2" opacity="0.5" d="M29.2936 3.69593C19.6886 3.69593 11.8299 11.5546 11.8299 21.1596H46.7573C46.7573 11.5546 38.8986 3.69593 29.2936 3.69593ZM55.4891 21.1596C53.7427 21.1596 52.5785 22.3238 52.5785 24.0702V35.7126C52.5785 37.459 53.7427 38.6232 55.4891 38.6232C57.2354 38.6232 58.3997 37.459 58.3997 35.7126V24.0702C58.3997 22.3238 57.2354 21.1596 55.4891 21.1596ZM3.09811 21.1596C1.35174 21.1596 0.1875 22.3238 0.1875 24.0702V35.7126C0.1875 37.459 1.35174 38.6232 3.09811 38.6232C4.84448 38.6232 6.00872 37.459 6.00872 35.7126V24.0702C6.00872 22.3238 4.84448 21.1596 3.09811 21.1596ZM11.8299 44.4445C11.8299 46.1908 12.9942 47.3551 14.7405 47.3551H20.5618V56.0869C20.5618 57.8333 21.726 58.9975 23.4724 58.9975C25.2187 58.9975 26.383 57.8333 26.383 56.0869V47.3551H32.2042V56.0869C32.2042 57.8333 33.3684 58.9975 35.1148 58.9975C36.8612 58.9975 38.0254 57.8333 38.0254 56.0869V47.3551H43.8466C45.593 47.3551 46.7573 46.1908 46.7573 44.4445V26.9808H11.8299V44.4445Z" fill="#FEA918"/>
</g>
</svg>
