<svg width="52" height="52" viewBox="0 0 52 52" fill="none" xmlns="http://www.w3.org/2000/svg">
<g id="Arrow">
<circle id="Ellipse 5" cx="26" cy="26" r="26" transform="matrix(-1 0 0 1 52 0)" fill="#FEA918"/>
<path id="Vector" d="M28.785 20.1661L28.7848 20.166C28.5688 19.9627 28.2778 19.85 27.9761 19.85C27.6744 19.85 27.3834 19.9627 27.1674 20.166L27.1674 20.166L21.8397 25.1852L21.8396 25.1852C21.6236 25.389 21.5004 25.6673 21.5004 25.9594C21.5004 26.2515 21.6236 26.5297 21.8396 26.7335L21.8397 26.7336L27.1655 31.751C27.2708 31.8569 27.397 31.9414 27.5364 31.9999L27.5945 31.8616L27.5364 31.9999C27.6767 32.0588 27.8279 32.0904 27.9809 32.0929C28.134 32.0955 28.2862 32.069 28.4285 32.0148C28.5709 31.9606 28.7008 31.8798 28.8103 31.7766C28.9198 31.6735 29.0066 31.5501 29.0651 31.4136C29.1237 31.277 29.1526 31.1304 29.1498 30.9826C29.147 30.8348 29.1127 30.6893 29.0491 30.5549C28.9859 30.4213 28.8953 30.3016 28.7831 30.2026L24.279 25.9594L28.7849 21.7145L28.785 21.7144C29.001 21.5106 29.1242 21.2324 29.1242 20.9403C29.1242 20.6481 29.001 20.3699 28.785 20.1661Z" fill="#232323" stroke="#232323" stroke-width="0.3"/>
</g>
</svg>
