<svg width="52" height="52" viewBox="0 0 52 52" fill="none" xmlns="http://www.w3.org/2000/svg">
<g id="Arrow">
<circle id="Ellipse 5" cx="26" cy="26" r="26" fill="#FEA918"/>
<path id="Vector" d="M23.215 20.1661L23.2152 20.166C23.4312 19.9627 23.7222 19.85 24.0239 19.85C24.3256 19.85 24.6166 19.9627 24.8326 20.166L24.8326 20.166L30.1603 25.1852L30.1604 25.1852C30.3764 25.389 30.4996 25.6673 30.4996 25.9594C30.4996 26.2515 30.3764 26.5297 30.1604 26.7335L30.1603 26.7336L24.8345 31.751C24.7292 31.8569 24.603 31.9414 24.4636 31.9999L24.4055 31.8616L24.4636 31.9999C24.3233 32.0588 24.1721 32.0904 24.0191 32.0929C23.866 32.0955 23.7138 32.069 23.5715 32.0148C23.4291 31.9606 23.2992 31.8798 23.1897 31.7766C23.0802 31.6735 22.9934 31.5501 22.9349 31.4136C22.8763 31.277 22.8474 31.1304 22.8502 30.9826C22.853 30.8348 22.8873 30.6893 22.9509 30.5549C23.0141 30.4213 23.1047 30.3016 23.2169 30.2026L27.721 25.9594L23.2151 21.7145L23.215 21.7144C22.999 21.5106 22.8758 21.2324 22.8758 20.9403C22.8758 20.6481 22.999 20.3699 23.215 20.1661Z" fill="#232323" stroke="#232323" stroke-width="0.3"/>
</g>
</svg>
