<svg width="111" height="88" viewBox="0 0 111 88" fill="none" xmlns="http://www.w3.org/2000/svg">
<path id="Vector" d="M5 21.8735L49.3773 51.4583C51.2258 52.6917 53.3982 53.3498 55.6205 53.3498C57.8427 53.3498 60.0151 52.6917 61.8636 51.4583L106.241 21.8735M16.249 83.7429H94.9919C97.9753 83.7429 100.837 82.5578 102.946 80.4482C105.056 78.3386 106.241 75.4774 106.241 72.4939V16.249C106.241 13.2656 105.056 10.4043 102.946 8.29475C100.837 6.18516 97.9753 5 94.9919 5H16.249C13.2656 5 10.4043 6.18516 8.29475 8.29475C6.18516 10.4043 5 13.2656 5 16.249V72.4939C5 75.4774 6.18516 78.3386 8.29475 80.4482C10.4043 82.5578 13.2656 83.7429 16.249 83.7429Z" stroke="#FEA918" stroke-width="8.5" stroke-linecap="round" stroke-linejoin="round"/>
</svg>
