<svg width="274" height="49" viewBox="0 0 274 49" fill="none" xmlns="http://www.w3.org/2000/svg">
<path fill-rule="evenodd" clip-rule="evenodd" d="M249.022 0.563721C247.954 0.563721 246.929 0.983875 246.174 1.73176C245.418 2.47964 244.994 3.49398 244.994 4.55164V6.42198H247.008C249.946 6.42198 252.764 7.5774 254.842 9.63408C256.92 11.6907 258.087 14.4802 258.087 17.3888V18.0109H273.194V4.55164C273.194 3.49398 272.77 2.47964 272.014 1.73176C271.259 0.983875 270.234 0.563721 269.165 0.563721H249.022ZM248.583 47.9043C249.005 46.6958 249.127 45.4046 248.938 44.1397C251.502 43.6908 253.824 42.3624 255.497 40.3876C257.17 38.4128 258.087 35.9178 258.087 33.3405V22.9958H273.194V44.4309C273.194 45.4885 272.77 46.5029 272.014 47.2507C271.259 47.9986 270.234 48.4188 269.165 48.4188H251.037C250.191 48.4202 249.355 48.2449 248.583 47.9043ZM267.84 9.28531C267.861 9.69906 267.798 10.1128 267.652 10.5013C267.507 10.8899 267.284 11.2451 266.995 11.5455C266.707 11.8458 266.36 12.085 265.975 12.2484C265.591 12.4118 265.177 12.4961 264.758 12.4961C264.34 12.4961 263.925 12.4118 263.541 12.2484C263.156 12.085 262.809 11.8458 262.521 11.5455C262.233 11.2451 262.009 10.8899 261.864 10.5013C261.719 10.1128 261.655 9.69906 261.676 9.28531C261.717 8.50317 262.059 7.76628 262.633 7.22683C263.206 6.68738 263.967 6.3866 264.758 6.3866C265.549 6.3866 266.31 6.68738 266.884 7.22683C267.457 7.76628 267.8 8.50317 267.84 9.28531ZM216.793 17.3927C216.793 15.8063 217.43 14.2847 218.563 13.1629C219.697 12.0411 221.234 11.4109 222.836 11.4109H247.008C248.611 11.4109 250.148 12.0411 251.281 13.1629C252.414 14.2847 253.051 15.8063 253.051 17.3927V33.3444C253.051 34.9309 252.414 36.4524 251.281 37.5743C250.148 38.6961 248.611 39.3263 247.008 39.3263H237.944V42.3173H240.965C241.766 42.3173 242.535 42.6324 243.102 43.1933C243.668 43.7542 243.987 44.515 243.987 45.3082C243.987 46.1015 243.668 46.8622 243.102 47.4231C242.535 47.984 241.766 48.2991 240.965 48.2991H228.879C228.078 48.2991 227.309 47.984 226.743 47.4231C226.176 46.8622 225.858 46.1015 225.858 45.3082C225.858 44.515 226.176 43.7542 226.743 43.1933C227.309 42.6324 228.078 42.3173 228.879 42.3173H231.901V39.3263H222.836C221.234 39.3263 219.697 38.6961 218.563 37.5743C217.43 36.4524 216.793 34.9309 216.793 33.3444V17.3927Z" fill="#FEA918"/>
<path fill-rule="evenodd" clip-rule="evenodd" d="M218.563 13.1629C217.43 14.2848 216.793 15.8063 216.793 17.3928V33.3445C216.793 34.931 217.43 36.4525 218.563 37.5743C219.697 38.6961 221.234 39.3263 222.836 39.3263H231.901V42.3173H228.879C228.078 42.3173 227.309 42.6324 226.743 43.1933C226.176 43.7542 225.858 44.515 225.858 45.3082C225.858 46.1015 226.176 46.8622 226.743 47.4231C227.309 47.984 228.078 48.2992 228.879 48.2992H240.965C241.766 48.2992 242.535 47.984 243.102 47.4231C243.668 46.8622 243.987 46.1015 243.987 45.3082C243.987 44.515 243.668 43.7542 243.102 43.1933C242.535 42.6324 241.766 42.3173 240.965 42.3173H237.944V39.3263H247.008C248.611 39.3263 250.148 38.6961 251.281 37.5743C252.414 36.4525 253.051 34.931 253.051 33.3445V17.3928C253.051 15.8063 252.414 14.2848 251.281 13.1629C250.148 12.0411 248.611 11.4109 247.008 11.4109H222.836C221.234 11.4109 219.697 12.0411 218.563 13.1629Z" fill="black"/>
<path d="M26.8323 32.045C27.0547 32.045 27.1659 32.1562 27.1659 32.3786V36.0485C27.1659 36.2709 27.0547 36.3821 26.8323 36.3821H25.3643C24.2968 36.3821 23.396 36.0929 22.662 35.5147C21.9503 37.5609 20.7048 39.2179 18.9255 40.4856C17.1684 41.7756 15.1778 42.4206 12.9536 42.4206C11.0854 42.4206 9.35052 41.9536 7.74914 41.0194C6.17 40.0853 4.91336 38.8175 3.97922 37.2161C3.04508 35.637 2.57801 33.9133 2.57801 32.045V25.8063H6.68155V31.8115C6.68155 32.9458 6.95957 33.9911 7.51561 34.9475C8.09388 35.9039 8.86121 36.6601 9.81759 37.2161C10.7962 37.7944 11.8416 38.0835 12.9536 38.0835C14.1102 38.0835 15.1667 37.7944 16.123 37.2161C17.0794 36.6601 17.8356 35.9039 18.3917 34.9475C18.9699 33.9911 19.2591 32.9458 19.2591 31.8115V14.0295H23.2625V14.0628H23.4293V30.0766C23.4293 30.6327 23.6073 31.0997 23.9631 31.4778C24.3412 31.856 24.8083 32.045 25.3643 32.045H26.8323ZM37.6166 22.6702C38.8843 22.6702 40.052 22.9705 41.1196 23.571C42.2094 24.1493 43.0657 24.9611 43.6885 26.0065C44.3335 27.0296 44.656 28.1639 44.656 29.4094C44.656 30.6772 44.3335 31.856 43.6885 32.9458C43.0657 34.0134 42.2094 34.8697 41.1196 35.5147C40.052 36.1374 38.8843 36.4488 37.6166 36.4488C36.6824 36.4488 35.815 36.282 35.0143 35.9484C34.2136 35.6148 33.513 35.1366 32.9125 34.5138C32.4455 35.0921 31.8672 35.548 31.1777 35.8816C30.5104 36.2153 29.7542 36.3821 28.9091 36.3821H26.8406C26.6182 36.3821 26.507 36.2709 26.507 36.0485V32.3786C26.507 32.1562 26.6182 32.045 26.8406 32.045H28.9091C29.4651 32.045 29.9322 31.856 30.3103 31.4778C30.6884 31.0997 30.8774 30.6327 30.8774 30.0766V26.7738H28.8423V22.6702H37.6166ZM37.6166 32.1117C38.395 32.1117 39.04 31.856 39.5516 31.3444C40.0631 30.8106 40.3189 30.1656 40.3189 29.4094C40.3189 28.6532 40.0631 28.0304 39.5516 27.5411C39.04 27.0296 38.395 26.7738 37.6166 26.7738H34.9476V29.4094C34.9476 30.1878 35.2034 30.8328 35.7149 31.3444C36.2265 31.856 36.8604 32.1117 37.6166 32.1117ZM53.7075 36.3821C52.5955 36.3821 51.5724 36.1152 50.6382 35.5814C49.7263 35.0254 49.0035 34.2914 48.4697 33.3795C47.9359 32.4453 47.669 31.4222 47.669 30.3102V14.0628H51.7725V30.0433C51.7725 30.5993 51.9616 31.0775 52.3397 31.4778C52.7178 31.856 53.1849 32.045 53.7409 32.045H55.4424C55.6648 32.045 55.776 32.1562 55.776 32.3786V36.0485C55.776 36.2709 55.6648 36.3821 55.4424 36.3821H53.7075ZM55.1124 32.3786C55.1124 32.1562 55.2236 32.045 55.446 32.045H62.8858C63.5753 32.045 64.1647 31.8115 64.654 31.3444C65.1655 30.8551 65.4213 30.2323 65.4213 29.4761C65.4213 28.542 64.9765 27.808 64.0868 27.2742L56.4135 22.2032V19.0004L62.9525 12.0277L65.7883 14.6967L60.6505 20.068L66.6557 24.0381C67.5676 24.6386 68.2793 25.4171 68.7909 26.3734C69.3024 27.3298 69.5582 28.3974 69.5582 29.5762C69.5582 30.7995 69.2579 31.9338 68.6574 32.9791C68.0569 34.0245 67.234 34.8585 66.1886 35.4813C65.1655 36.0818 64.0423 36.3821 62.8191 36.3821H55.446C55.2236 36.3821 55.1124 36.2709 55.1124 36.0485V32.3786ZM86.9258 20.6352H90.7624V24.4718H86.9258V20.6352ZM92.4973 20.6352H96.3339V24.4718H92.4973V20.6352ZM86.7923 36.3821C85.3244 36.3821 83.9677 36.0262 82.7222 35.3145C81.4766 34.5805 80.4869 33.5908 79.7529 32.3453C79.0412 31.0997 78.6854 29.743 78.6854 28.2751V24.4718H82.7889V28.0415C82.7889 29.1314 83.1781 30.0766 83.9566 30.8773C84.7573 31.6558 85.7025 32.045 86.7923 32.045H97.7018C98.458 32.045 99.0919 31.7892 99.6034 31.2777C100.115 30.7661 100.371 30.1211 100.371 29.3427V24.4718H104.474V29.3427C104.474 30.6104 104.174 31.7892 103.573 32.8791C102.995 33.9466 102.183 34.8029 101.138 35.4479C100.115 36.0707 98.9695 36.3821 97.7018 36.3821H86.7923ZM107.486 14.0628H111.59V36.3821H107.486V14.0628ZM119.26 17.6659V21.5026H115.424V17.6659H119.26ZM122.83 32.045C123.053 32.045 123.164 32.1562 123.164 32.3786V36.0485C123.164 36.2709 123.053 36.3821 122.83 36.3821H121.362C120.651 36.3821 119.994 36.2598 119.394 36.0151C119.327 37.6165 119.038 38.951 118.527 40.0186C118.015 41.0861 117.214 42.0425 116.124 42.8877C115.057 43.7329 113.533 44.6336 111.554 45.59L110.019 42.1537C111.621 41.2418 112.755 40.519 113.422 39.9852C114.112 39.4514 114.59 38.8398 114.857 38.1503C115.146 37.4608 115.29 36.4933 115.29 35.2478V24.4718H119.394V30.0766C119.394 30.6327 119.583 31.0997 119.961 31.4778C120.339 31.856 120.806 32.045 121.362 32.045H122.83ZM122.488 32.3786C122.488 32.1562 122.599 32.045 122.822 32.045H124.924C125.48 32.045 125.936 31.856 126.292 31.4778C126.67 31.0997 126.859 30.6327 126.859 30.0766V24.4718H130.962V30.0766C130.962 30.6327 131.151 31.0997 131.529 31.4778C131.907 31.856 132.375 32.045 132.931 32.045H135.032C135.255 32.045 135.366 32.1562 135.366 32.3786V36.0485C135.366 36.2709 135.255 36.3821 135.032 36.3821H132.931C131.218 36.3821 129.884 35.7593 128.927 34.5138C128.46 35.1143 127.882 35.5814 127.192 35.915C126.525 36.2264 125.769 36.3821 124.924 36.3821H122.822C122.599 36.3821 122.488 36.2709 122.488 36.0485V32.3786ZM124.19 39.3513H128.026V43.188H124.19V39.3513ZM129.761 39.3513H133.598V43.188H129.761V39.3513ZM153.522 32.045C153.744 32.045 153.856 32.1562 153.856 32.3786V36.0485C153.856 36.2709 153.744 36.3821 153.522 36.3821H151.787C151.031 36.3821 150.408 36.6379 149.919 37.1494C149.43 37.661 149.185 38.306 149.185 39.0844V40.4189H151.52V44.4557H143.28C142.101 44.4557 141 44.1555 139.977 43.5549C138.976 42.9767 138.175 42.176 137.575 41.1529C136.974 40.152 136.674 39.0622 136.674 37.8834V36.3821H135.039C134.817 36.3821 134.706 36.2709 134.706 36.0485V32.3786C134.706 32.1562 134.817 32.045 135.039 32.045H136.674V29.4428C136.674 28.175 136.963 27.0073 137.542 25.9397C138.142 24.8499 138.954 23.9936 139.977 23.3709C141 22.7259 142.146 22.4034 143.413 22.4034C144.681 22.4034 145.849 22.7259 146.916 23.3709C148.006 23.9936 148.862 24.8499 149.485 25.9397C150.13 27.0073 150.453 28.175 150.453 29.4428C150.453 30.4659 150.219 31.4778 149.752 32.4787C150.464 32.1896 151.253 32.045 152.121 32.045H153.522ZM140.744 32.045H143.413C144.192 32.045 144.837 31.8003 145.348 31.311C145.86 30.8217 146.116 30.199 146.116 29.4428C146.116 28.6643 145.86 28.0193 145.348 27.5078C144.837 26.9962 144.192 26.7404 143.413 26.7404C142.657 26.7404 142.023 27.0073 141.512 27.5411C141 28.0527 140.744 28.6866 140.744 29.4428V32.045ZM145.448 40.4189V39.0844C145.448 37.9723 145.682 36.8936 146.149 35.8483C145.259 36.2041 144.347 36.3821 143.413 36.3821H140.778V37.8834C140.778 38.5729 141.022 39.1623 141.512 39.6516C142.023 40.1631 142.624 40.4189 143.313 40.4189H145.448ZM153.512 36.3821C153.29 36.3821 153.179 36.2709 153.179 36.0485V32.3786C153.179 32.1562 153.29 32.045 153.512 32.045H160.151C161.998 32.045 163.521 31.489 164.722 30.3769L168.325 27.1408L163.254 24.7387C162.809 24.5163 162.431 24.4051 162.12 24.4051C161.808 24.4051 161.497 24.4829 161.186 24.6386C160.874 24.7943 160.596 24.9945 160.352 25.2391L157.516 28.4085L154.647 25.9064L157.516 22.4367C158.072 21.7472 158.75 21.2357 159.551 20.9021C160.374 20.5462 161.23 20.3683 162.12 20.3683C162.698 20.3683 163.199 20.435 163.621 20.5684C164.044 20.7019 164.455 20.8687 164.856 21.0689L172.062 24.4384C172.195 24.5052 172.384 24.5385 172.629 24.5385H175.898V28.542H172.295L171.428 29.3427V30.0766C171.428 30.6327 171.617 31.0997 171.995 31.4778C172.373 31.856 172.84 32.045 173.396 32.045H177.066C177.288 32.045 177.4 32.1562 177.4 32.3786V36.0485C177.4 36.2709 177.288 36.3821 177.066 36.3821H173.396C172.106 36.3821 171.028 36.0151 170.16 35.2811C169.293 34.5472 168.681 33.5685 168.325 32.3453L166.991 33.5797C165.99 34.4916 164.844 35.1922 163.554 35.6815C162.287 36.1485 160.952 36.3821 159.551 36.3821H153.512ZM159.151 39.2846H162.954V43.1212H159.151V39.2846ZM176.901 16.6984H180.738V20.5351H176.901V16.6984ZM182.473 16.6984H186.309V20.5351H182.473V16.6984ZM177.068 36.3821C176.845 36.3821 176.734 36.2709 176.734 36.0485V32.3786C176.734 32.1562 176.845 32.045 177.068 32.045H180.304C180.838 32.045 181.294 31.856 181.672 31.4778C182.05 31.0775 182.239 30.5993 182.239 30.0433V23.4709H186.343V30.3102C186.343 31.4222 186.076 32.4453 185.542 33.3795C185.008 34.2914 184.274 35.0254 183.34 35.5814C182.428 36.1152 181.416 36.3821 180.304 36.3821H177.068Z" fill="#111111"/>
</svg>
