<svg width="55" height="57" viewBox="0 0 55 57" fill="none" xmlns="http://www.w3.org/2000/svg">
<g id="Group">
<path id="Vector" opacity="0.5" d="M0.115723 28.3381C0.115723 15.0062 0.115723 8.34024 4.10827 4.19699C8.10627 0.056572 14.5314 0.056572 27.3872 0.056572C40.243 0.056572 46.6709 0.056572 50.6635 4.19699C54.6587 8.34307 54.6587 15.0062 54.6587 28.3381C54.6587 41.6701 54.6587 48.336 50.6635 52.4765C46.6736 56.6197 40.243 56.6197 27.3872 56.6197C14.5314 56.6197 8.10355 56.6197 4.10827 52.4765C0.115723 48.3389 0.115723 41.6701 0.115723 28.3381Z" fill="#FEA918"/>
<path id="Vector_2" d="M12.1807 21.3241C12.528 20.8922 13.0264 20.621 13.5664 20.5701C14.1065 20.5192 14.6439 20.6927 15.0606 21.0526L15.816 21.7031C17.4659 23.1285 18.8704 24.3418 19.8413 25.4589C20.8749 26.6467 21.6794 28.0071 21.6794 29.752C21.6794 31.497 20.8749 32.8602 19.8413 34.0452C18.8704 35.1623 17.4659 36.3756 15.816 37.801L15.0606 38.4514C14.8553 38.6377 14.6162 38.7794 14.3573 38.8684C14.0984 38.9574 13.825 38.9918 13.5531 38.9696C13.2812 38.9473 13.0164 38.869 12.7741 38.739C12.5319 38.6091 12.3171 38.4302 12.1425 38.2129C11.9679 37.9956 11.837 37.7443 11.7574 37.4738C11.6779 37.2033 11.6513 36.919 11.6792 36.6376C11.7072 36.3563 11.7891 36.0836 11.9202 35.8356C12.0513 35.5875 12.2288 35.3692 12.4425 35.1934L13.0807 34.6419C14.8778 33.0864 16.0532 32.0683 16.8059 31.2029C17.5205 30.3827 17.5886 29.9952 17.5886 29.752C17.5886 29.5088 17.5205 29.1242 16.8059 28.3012C16.0505 27.4358 14.8778 26.4148 13.0807 24.8621L12.4425 24.3107C12.026 23.9505 11.7645 23.4336 11.7154 22.8736C11.6663 22.3136 11.8337 21.7562 12.1807 21.3241ZM43.0684 36.8224C43.0684 37.385 42.8529 37.9245 42.4693 38.3223C42.0858 38.7201 41.5655 38.9435 41.023 38.9435H27.3873C26.8448 38.9435 26.3246 38.7201 25.941 38.3223C25.5574 37.9245 25.3419 37.385 25.3419 36.8224C25.3419 36.2599 25.5574 35.7203 25.941 35.3226C26.3246 34.9248 26.8448 34.7013 27.3873 34.7013H41.023C41.5655 34.7013 42.0858 34.9248 42.4693 35.3226C42.8529 35.7203 43.0684 36.2599 43.0684 36.8224Z" fill="#FEA918"/>
</g>
</svg>
