<svg width="75" height="69" viewBox="0 0 75 69" fill="none" xmlns="http://www.w3.org/2000/svg">
<g id="Group">
<path id="Vector" opacity="0.5" fill-rule="evenodd" clip-rule="evenodd" d="M3.47423 34.0656C3.47423 15.3569 18.6392 0.191895 37.348 0.191895C56.0567 0.191895 71.2217 15.3569 71.2217 34.0656V43.7691C71.6147 43.6302 72.0353 43.5876 72.4481 43.6448C72.861 43.7021 73.2541 43.8575 73.5945 44.0982C73.9348 44.3388 74.2125 44.6576 74.4042 45.0277C74.5958 45.3979 74.6959 45.8086 74.6959 46.2254V53.1739C74.6959 53.865 74.4214 54.5277 73.9327 55.0164C73.4441 55.505 72.7813 55.7796 72.0902 55.7796C71.3992 55.7796 70.7364 55.505 70.2478 55.0164C69.7591 54.5277 69.4846 53.865 69.4846 53.1739V51.4368H66.0103V34.0656C66.0103 26.4639 62.9906 19.1735 57.6153 13.7983C52.2401 8.42302 44.9497 5.40324 37.348 5.40324C29.7462 5.40324 22.4558 8.42302 17.0806 13.7983C11.7053 19.1735 8.68557 26.4639 8.68557 34.0656V51.4368H5.21134V53.1739C5.21134 53.865 4.93682 54.5277 4.44816 55.0164C3.9595 55.505 3.29674 55.7796 2.60567 55.7796C1.9146 55.7796 1.25184 55.505 0.763184 55.0164C0.274525 54.5277 0 53.865 0 53.1739V46.2254C5.9344e-05 45.8086 0.100116 45.3979 0.291771 45.0277C0.483425 44.6576 0.761084 44.3388 1.10144 44.0982C1.44179 43.8575 1.83491 43.7021 2.24778 43.6448C2.66066 43.5876 3.08124 43.6302 3.47423 43.7691V34.0656Z" fill="#FEA918"/>
<path id="Vector_2" d="M23.4511 41.1878C23.4511 38.2347 23.4511 36.7616 22.7215 35.7332C22.3506 35.2141 21.8642 34.7883 21.3005 34.4894C20.1714 33.8849 18.6497 34.0239 15.6028 34.3053C10.4609 34.7709 7.89696 35.0071 6.05562 36.2891C5.13024 36.9323 4.34828 37.7604 3.75916 38.7211C2.60571 40.6145 2.60571 43.0986 2.60571 48.0667V54.1119C2.60571 59.0349 2.60571 61.4981 3.78 63.3985C4.22123 64.1107 4.77363 64.7535 5.41636 65.2989C7.13611 66.7685 9.6445 67.2271 14.6648 68.1408C18.1946 68.787 19.963 69.1101 21.2658 68.4292C21.7452 68.1791 22.1691 67.8386 22.5165 67.4321C23.4511 66.3238 23.4511 64.5902 23.4511 61.1264V41.1843V41.1878ZM51.2449 41.1878C51.2449 38.2347 51.2449 36.7616 51.9745 35.7332C52.3393 35.219 52.8257 34.7917 53.3955 34.4894C54.5246 33.8849 56.0463 34.0239 59.0932 34.3053C64.2351 34.7709 66.799 35.0071 68.6404 36.2891C69.5715 36.9423 70.3532 37.7691 70.9369 38.7211C72.0903 40.611 72.0903 43.0986 72.0903 48.0667V54.1119C72.0903 59.0349 72.0903 61.4981 70.916 63.3985C70.4748 64.1107 69.9224 64.7535 69.2796 65.2989C67.5599 66.7685 65.0515 67.2271 60.0312 68.1408C56.5014 68.787 54.733 69.1101 53.4302 68.4292C52.9525 68.1812 52.5277 67.8425 52.1795 67.4321C51.2449 66.3238 51.2449 64.5902 51.2449 61.1264V41.1843V41.1878Z" fill="#FEA918"/>
</g>
</svg>
