<svg width="55" height="49" viewBox="0 0 55 49" fill="none" xmlns="http://www.w3.org/2000/svg">
<g id="Group 54">
<path id="Vector" d="M40.3758 0.563721C42.3896 0.563721 44.2785 0.93738 46.0428 1.6847C47.807 2.43202 49.3396 3.46403 50.6405 4.78073C51.9414 6.09744 52.975 7.63656 53.7413 9.39809C54.5076 11.1596 54.8907 13.0457 54.8907 15.0564C54.8907 16.0884 54.7838 17.1115 54.57 18.1257C54.3561 19.1399 54.0353 20.1186 53.6076 21.0616H41.2312L36.0989 15.7236L27.545 24.2644L15.5695 12.3073L7.01561 21.0616H1.4823C1.05461 20.1186 0.733838 19.1399 0.51999 18.1257C0.306143 17.1115 0.199219 16.0884 0.199219 15.0564C0.199219 13.0457 0.573452 11.1596 1.32192 9.39809C2.07038 7.63656 3.10398 6.10633 4.42271 4.80742C5.74143 3.50851 7.28292 2.4765 9.04716 1.71139C10.8114 0.946277 12.7004 0.563721 14.7141 0.563721C16.6566 0.563721 18.5099 0.928483 20.2742 1.65801C22.0384 2.38753 23.6155 3.43734 25.0055 4.80742L27.545 7.36966L30.0844 4.80742C31.4566 3.43734 33.0248 2.38753 34.7891 1.65801C36.5533 0.928483 38.4156 0.563721 40.3758 0.563721ZM37.8097 24.4779H51.4424L51.0682 24.9049C50.9435 25.0473 50.8098 25.1985 50.6672 25.3587L27.545 48.4188L4.42271 25.3587C4.28014 25.2163 4.14649 25.074 4.02174 24.9316C3.897 24.7893 3.77225 24.6381 3.64751 24.4779H10.4372L15.5695 19.567L27.545 31.5241L36.0989 22.9833L37.8097 24.4779Z" fill="#FEA918"/>
<path id="Intersect" fill-rule="evenodd" clip-rule="evenodd" d="M51.4424 24.4778H37.8096L36.0988 22.9832L27.5449 31.524L15.5695 19.5669L10.4371 24.4778H3.64746C3.77221 24.638 3.89695 24.7892 4.02169 24.9316C4.14644 25.0739 4.28009 25.2163 4.42266 25.3586L27.5449 48.4187L50.6672 25.3586C50.8098 25.1985 50.9434 25.0472 51.0681 24.9049L51.4424 24.4778Z" fill="black"/>
</g>
</svg>
