<svg width="25" height="25" viewBox="0 0 31 25" fill="none" xmlns="http://www.w3.org/2000/svg">
<path fill-rule="evenodd" clip-rule="evenodd" d="M2.12692 2.02365C0.367431 3.78164 0.367432 6.61304 0.367432 12.2743C0.367432 17.9356 0.367431 20.767 2.12692 22.525C3.88491 24.2845 6.71631 24.2845 12.3776 24.2845H18.3827C24.044 24.2845 26.8754 24.2845 28.6334 22.525C30.3929 20.767 30.3929 17.9356 30.3929 12.2743C30.3929 6.61304 30.3929 3.78164 28.6334 2.02365C26.8754 0.26416 24.044 0.26416 18.3827 0.26416H12.3776C6.71631 0.26416 3.88491 0.26416 2.12692 2.02365ZM25.2525 5.54864C25.4436 5.77802 25.5357 6.07387 25.5087 6.37115C25.4816 6.66843 25.3377 6.94282 25.1084 7.13398L21.8116 9.88131C20.48 10.9923 19.4021 11.89 18.4488 12.5025C17.4579 13.1406 16.4926 13.5429 15.3802 13.5429C14.2677 13.5429 13.3024 13.1391 12.3101 12.5025C11.3582 11.89 10.2803 10.9908 8.94871 9.88281L5.65191 7.13549C5.42237 6.94437 5.27815 6.66989 5.25098 6.37244C5.22382 6.07499 5.31592 5.77893 5.50704 5.54939C5.69816 5.31985 5.97263 5.17563 6.27008 5.14846C6.56753 5.12129 6.86359 5.2134 7.09313 5.40452L10.3359 8.10531C11.7366 9.2718 12.7079 10.0795 13.5306 10.6079C14.3248 11.1184 14.8637 11.291 15.3817 11.291C15.8996 11.291 16.4386 11.1199 17.2327 10.6079C18.0539 10.0795 19.0268 9.2718 20.4274 8.10531L23.6687 5.40302C23.8983 5.21216 24.1942 5.12028 24.4915 5.14759C24.7888 5.17489 25.0616 5.31915 25.2525 5.54864Z" fill="#FEA918"/>
</svg>
