<svg width="471" height="527" viewBox="0 0 471 527" fill="none" xmlns="http://www.w3.org/2000/svg">
<path d="M234.761 421.292C351.098 421.292 445.407 326.982 445.407 210.646C445.407 94.3094 351.098 0 234.761 0C118.425 0 24.1156 94.3094 24.1156 210.646C24.1156 326.982 118.425 421.292 234.761 421.292Z" fill="#111111" fill-opacity="0.11"/>
<path d="M412.574 467.239L147.586 433.59C140.567 432.698 135.599 426.286 136.487 419.263L179.612 79.6476C180.504 72.6282 186.917 67.6598 193.94 68.5482L458.927 102.197C465.946 103.089 470.915 109.502 470.026 116.525L426.901 456.14C426.009 463.159 419.597 468.128 412.574 467.239Z" fill="#FEA918"/>
<g style="mix-blend-mode:multiply" opacity="0.2">
<path d="M384.017 124.867H151.1C147.678 124.867 144.702 127.551 144.453 130.863L118.548 475.066C118.299 478.379 120.869 481.062 124.291 481.062H404.644C408.066 481.062 411.042 478.379 411.29 475.066L433.741 176.785L384.017 124.871V124.867Z" fill="#2A3352"/>
</g>
<path d="M409.159 168.307V476.448C409.159 477.863 408.68 479.172 407.88 480.218C406.746 481.695 404.966 482.645 402.962 482.645H122.609C119.187 482.645 116.413 479.87 116.413 476.448V120.868C116.413 117.446 119.187 114.671 122.609 114.671H355.523L409.155 168.303L409.159 168.307Z" fill="#F5F5F5"/>
<path d="M362.835 168.307H409.159L355.527 114.675V160.999C355.527 165.035 358.799 168.307 362.835 168.307Z" fill="#DEEBF5"/>
<path opacity="0.1" d="M225.957 245.684C227.48 239.251 231.09 233.22 236.784 227.594C242.48 221.965 249.803 217.925 258.757 215.467C267.706 213.008 277.469 213.026 288.038 215.527C297.857 217.852 306.103 221.719 312.764 227.12C319.427 232.524 324.065 238.824 326.692 246.026C329.314 253.229 329.758 260.489 328.027 267.802C326.664 273.561 324.303 278.332 320.94 282.114C317.574 285.895 313.915 288.979 309.95 291.37C305.987 293.757 298.957 297.692 288.862 303.172C286.06 304.727 283.778 306.138 282.014 307.403C280.247 308.667 278.868 309.876 277.881 311.036C276.89 312.195 276.052 313.393 275.366 314.625C274.68 315.857 273.572 318.044 272.042 321.187C269.085 327.927 264.224 330.494 257.449 328.894C253.927 328.059 251.231 326.209 249.375 323.335C247.512 320.464 247.123 316.76 248.195 312.22C249.544 306.529 251.587 301.809 254.335 298.061C257.08 294.313 260.286 291.209 263.945 288.746C267.601 286.286 272.419 283.475 278.388 280.31C283.621 277.54 287.431 275.42 289.82 273.946C292.205 272.472 294.342 270.707 296.227 268.647C298.108 266.586 299.376 264.173 300.036 261.394C301.319 255.975 300.386 250.924 297.237 246.246C294.089 241.565 289.326 238.473 282.964 236.965C275.512 235.201 269.582 235.782 265.168 238.709C260.753 241.633 256.466 246.467 252.292 253.206C248.179 260.316 242.903 263.111 236.469 261.587C232.671 260.69 229.788 258.593 227.815 255.298C225.842 252.007 225.22 248.801 225.96 245.685L225.957 245.684ZM249.185 368.787C245.054 367.81 241.762 365.617 239.315 362.213C236.865 358.809 236.211 354.702 237.348 349.89C238.358 345.622 240.699 342.386 244.368 340.177C248.037 337.969 252.038 337.38 256.374 338.404C260.645 339.414 263.888 341.719 266.111 345.324C268.331 348.924 268.941 352.861 267.931 357.128C266.808 361.873 264.402 365.238 260.716 367.228C257.026 369.214 253.18 369.734 249.185 368.787Z" fill="#111111"/>
<path d="M217.48 247.801C218.314 241.242 221.264 234.863 226.331 228.666C231.398 222.465 238.253 217.672 246.895 214.28C255.534 210.887 265.244 209.871 276.018 211.238C286.028 212.51 294.638 215.483 301.833 220.148C309.031 224.816 314.31 230.589 317.685 237.473C321.055 244.357 322.266 251.53 321.319 258.984C320.573 264.856 318.73 269.85 315.787 273.966C312.841 278.083 309.528 281.537 305.84 284.334C302.151 287.127 295.577 291.785 286.12 298.303C283.498 300.146 281.378 301.791 279.758 303.235C278.135 304.679 276.892 306.028 276.033 307.286C275.17 308.544 274.465 309.823 273.913 311.121C273.361 312.419 272.49 314.711 271.302 317.998C269.076 325.013 264.513 328.081 257.607 327.207C254.017 326.75 251.14 325.196 248.99 322.535C246.833 319.877 246.055 316.236 246.64 311.607C247.378 305.805 248.91 300.895 251.246 296.878C253.578 292.86 256.437 289.434 259.815 286.597C263.19 283.764 267.683 280.459 273.284 276.679C278.194 273.37 281.758 270.859 283.977 269.14C286.193 267.422 288.13 265.44 289.786 263.192C291.439 260.944 292.444 258.41 292.806 255.577C293.508 250.053 292.046 245.128 288.419 240.811C284.793 236.489 279.729 233.919 273.244 233.093C265.647 232.128 259.812 233.334 255.732 236.712C251.652 240.087 247.901 245.348 244.464 252.491C241.126 259.997 236.176 263.335 229.618 262.501C225.746 262.011 222.657 260.231 220.346 257.164C218.036 254.1 217.078 250.978 217.484 247.801H217.48ZM253.615 367.751C249.403 367.217 245.897 365.386 243.104 362.26C240.307 359.134 239.222 355.12 239.843 350.214C240.395 345.863 242.38 342.397 245.795 339.813C249.21 337.228 253.125 336.219 257.545 336.778C261.899 337.33 265.369 339.279 267.961 342.628C270.549 345.973 271.573 349.822 271.021 354.173C270.407 359.01 268.37 362.611 264.915 364.98C261.457 367.345 257.688 368.27 253.615 367.751Z" fill="#111111"/>
<path opacity="0.1" d="M300.732 410.759C300.458 424.97 296.25 439.012 288.99 451.544C282.38 462.976 273.222 473.154 262.199 481.062C261.45 481.599 260.693 482.126 259.925 482.645H166.363C165.727 482.133 165.106 481.607 164.491 481.062C156.211 473.801 149.751 464.431 145.876 453.383L129.19 458.352L129.406 459.54C129.921 462.388 127.94 465.411 124.982 466.292L119.081 468.051H119.078L116.42 468.844V432.044L118.668 431.375C119.787 431.042 120.884 431.064 121.845 431.371C123.432 431.879 124.642 433.162 124.96 434.932L125.176 436.124L141.638 431.221L141.861 431.155C141.605 421.262 143.284 411.395 146.603 402.007C156.017 375.377 178.621 352.597 207.679 343.944C250.91 331.075 292.05 354.341 299.57 395.916C300.462 400.844 300.842 405.813 300.74 410.759H300.732Z" fill="#111111"/>
<path d="M143.251 447.399L136.37 425.17L110.358 433.222L117.239 455.451L143.251 447.399Z" fill="#2A3352"/>
<path d="M7.86142 490.637L0.24252 466.029C-0.638553 463.181 0.955421 460.161 3.79971 459.28L106.099 427.609C108.947 426.728 111.967 428.322 112.848 431.166L120.467 455.774C121.348 458.622 119.754 461.642 116.91 462.523L14.6102 494.194C11.7623 495.075 8.7425 493.481 7.86142 490.637Z" fill="#FEA918"/>
<path d="M262.883 471.172C293.656 440.399 293.656 390.506 262.883 359.733C232.11 328.96 182.217 328.96 151.444 359.733C120.671 390.506 120.671 440.399 151.444 471.172C182.217 501.945 232.11 501.945 262.883 471.172Z" fill="#FEA918"/>
<path d="M249.704 457.993C273.199 434.498 273.199 396.406 249.704 372.912C226.21 349.417 188.117 349.417 164.623 372.912C141.128 396.406 141.128 434.498 164.623 457.993C188.117 481.487 226.21 481.487 249.704 457.993Z" fill="white"/>
<path d="M189.849 453.332C189.055 453.332 188.251 453.146 187.498 452.747C185.034 451.446 184.087 448.397 185.388 445.929L220.01 380.258C221.311 377.794 224.364 376.847 226.828 378.148C229.292 379.45 230.239 382.499 228.938 384.967L194.316 450.638C193.413 452.352 191.658 453.332 189.849 453.332Z" fill="#111111"/>
<path d="M239.993 437.809C239.2 437.809 238.395 437.623 237.642 437.224L171.975 402.603C169.511 401.301 168.564 398.252 169.866 395.785C171.163 393.32 174.216 392.374 176.684 393.675L242.351 428.297C244.815 429.598 245.762 432.647 244.461 435.115C243.558 436.829 241.806 437.809 239.993 437.809Z" fill="#111111"/>
</svg>
