<svg width="60" height="49" viewBox="0 0 60 49" fill="none" xmlns="http://www.w3.org/2000/svg">
<g id="Group 47">
<path id="Vector" d="M35.419 20.4139L22.0066 10.8375C20.1289 9.49623 17.6342 9.49623 15.7833 10.8375L2.37095 20.4139C0.949242 21.4332 0.117676 23.0427 0.117676 24.7863V46.1656C0.117676 47.641 1.32479 48.8481 2.80015 48.8481H13.53V32.7533H24.2599V48.8481H34.9898C36.4652 48.8481 37.6723 47.641 37.6723 46.1656V24.7863C37.6723 23.0427 36.8407 21.4332 35.419 20.4139Z" fill="#FEA918"/>
<path id="Vector_2" d="M53.8479 0.563721H29.5447C26.6208 0.563721 24.2603 2.92429 24.2603 5.84819L24.5017 6.08961C24.7163 6.22373 24.9309 6.33103 25.1455 6.46516L38.5578 16.0416C40.5965 17.4901 42.045 19.6361 42.6888 22.0235H48.4025V27.3884H43.0376V32.7534H48.4025V38.1183H43.0376V48.8482H53.8479C56.7718 48.8482 59.1324 46.4876 59.1324 43.5637V5.84819C59.1324 2.92429 56.7718 0.563721 53.8479 0.563721ZM48.4025 16.6585H43.0376V11.2936H48.4025V16.6585Z" fill="#111111"/>
</g>
</svg>
