<svg width="69" height="69" viewBox="0 0 69 69" fill="none" xmlns="http://www.w3.org/2000/svg">
<g id="Group 3">
<path id="Vector" opacity="0.25" d="M34.5 69C53.5538 69 69 53.5538 69 34.5C69 15.4462 53.5538 0 34.5 0C15.4462 0 0 15.4462 0 34.5C0 53.5538 15.4462 69 34.5 69Z" fill="#FEA918"/>
<path id="Vector_2" d="M34.5 0C27.6766 0 21.0063 2.02339 15.3328 5.8143C9.65934 9.6052 5.23739 14.9934 2.62617 21.2974C0.0149483 27.6015 -0.668267 34.5383 0.662923 41.2306C1.99411 47.9229 5.27992 54.0703 10.1048 58.8952C14.9297 63.7201 21.077 67.0059 27.7694 68.3371C34.4617 69.6683 41.3985 68.9851 47.7026 66.3738C54.0066 63.7626 59.3948 59.3407 63.1857 53.6672C66.9766 47.9937 69 41.3234 69 34.5C68.9899 25.3531 65.3519 16.5837 58.8841 10.1159C52.4163 3.64808 43.6469 0.010045 34.5 0ZM3.48451 34.5C3.48007 30.1489 4.39474 25.846 6.16861 21.873L20.9657 62.4139C15.7243 59.8723 11.3045 55.9061 8.21225 50.9694C5.12005 46.0328 3.48387 40.3251 3.48451 34.5ZM34.5 65.5155C31.5336 65.5159 28.5826 65.0907 25.737 64.2528L35.0451 37.2082L44.5774 63.3282C44.6402 63.4768 44.7152 63.6198 44.8017 63.756C41.4924 64.9222 38.0088 65.5172 34.5 65.5155ZM38.7746 19.9513C40.641 19.8547 42.3281 19.6581 42.3281 19.6581C42.6561 19.6177 42.9559 19.4523 43.165 19.1964C43.3742 18.9404 43.4765 18.6137 43.4507 18.2842C43.4249 17.9547 43.273 17.6478 43.0266 17.4275C42.7802 17.2072 42.4583 17.0905 42.128 17.1016C42.128 17.1016 37.1013 17.4949 33.8583 17.4949C30.812 17.4949 25.6887 17.1016 25.6887 17.1016C25.3638 17.0993 25.0501 17.2203 24.8109 17.4402C24.5718 17.6601 24.4249 17.9625 24.3999 18.2864C24.375 18.6104 24.4738 18.9317 24.6765 19.1857C24.8792 19.4396 25.1706 19.6072 25.4921 19.6546C25.4921 19.6546 27.0756 19.8547 28.7454 19.9513L33.5789 33.1924L26.7893 53.5509L15.494 19.9513C16.681 19.8872 17.866 19.7894 19.0475 19.6581C19.3755 19.6177 19.6753 19.4523 19.8844 19.1964C20.0936 18.9404 20.1959 18.6137 20.1701 18.2842C20.1443 17.9547 19.9924 17.6478 19.746 17.4275C19.4996 17.2072 19.1777 17.0905 18.8474 17.1016C18.8474 17.1016 13.8242 17.4949 10.5812 17.4949C9.99466 17.4949 9.31156 17.4811 8.58361 17.4604C11.0493 13.707 14.3009 10.5339 18.1135 8.16065C21.9261 5.78739 26.2086 4.27058 30.6651 3.71513C35.1215 3.15968 39.6453 3.57884 43.9238 4.94362C48.2023 6.30841 52.1333 8.58624 55.4449 11.6196C55.3104 11.6127 55.1827 11.5954 55.0447 11.5954C53.6248 11.6379 52.2795 12.241 51.3031 13.273C50.3268 14.3049 49.799 15.6815 49.8352 17.1016C50.1601 19.7616 51.2144 22.2798 52.8816 24.3777C54.5117 26.937 55.3969 29.8996 55.438 32.9337C55.1157 36.3681 54.3217 39.7418 53.0783 42.9594L49.9836 53.2956L38.7746 19.9513ZM50.094 61.3065L59.5677 33.9135C61.0716 30.3999 61.8733 26.626 61.9275 22.8045C61.93 21.7373 61.8608 20.6712 61.7205 19.6132C65.5973 26.7076 66.5516 35.0351 64.38 42.8225C62.2084 50.61 57.0826 57.242 50.094 61.3065Z" fill="#FEA918"/>
</g>
</svg>
