<svg width="68" height="68" viewBox="0 0 64 68" fill="none" xmlns="http://www.w3.org/2000/svg">
<path d="M24.6293 50.5723H39.4529M20.9235 17.2194L17.2176 2.39587M43.1587 17.2194L46.8646 2.39587M13.5117 17.2193H50.5705C52.5362 17.2193 54.4214 18.0002 55.8114 19.3902C57.2014 20.7802 57.9823 22.6654 57.9823 24.6311V28.337L61.6882 32.0429V43.1605L57.9823 46.8664V57.9841C57.9823 59.9498 57.2014 61.835 55.8114 63.225C54.4214 64.6149 52.5362 65.3958 50.5705 65.3958H13.5117C11.546 65.3958 9.66076 64.6149 8.27078 63.225C6.88081 61.835 6.09993 59.9498 6.09993 57.9841V46.8664L2.39404 43.1605V32.0429L6.09993 28.337V24.6311C6.09993 22.6654 6.88081 20.7802 8.27078 19.3902C9.66076 18.0002 11.546 17.2193 13.5117 17.2193ZM20.9235 33.8959C20.9235 34.9193 20.0939 35.7489 19.0705 35.7489C18.0472 35.7489 17.2176 34.9193 17.2176 33.8959C17.2176 32.8726 18.0472 32.043 19.0705 32.043C20.0939 32.043 20.9235 32.8726 20.9235 33.8959ZM46.8646 33.8959C46.8646 34.9193 46.035 35.7489 45.0117 35.7489C43.9883 35.7489 43.1588 34.9193 43.1588 33.8959C43.1588 32.8726 43.9883 32.043 45.0117 32.043C46.035 32.043 46.8646 32.8726 46.8646 33.8959Z" stroke="#FEA918" stroke-width="4.5" stroke-linecap="round" stroke-linejoin="round"/>
</svg>
