<svg  viewBox="0 0 29 29" fill="none" xmlns="http://www.w3.org/2000/svg">
<path d="M9.55734 6.10362L10.5317 7.8496C11.4099 9.42594 11.0571 11.4917 9.67294 12.8774C9.67294 12.8774 7.99151 14.5573 11.0391 17.6034C14.0822 20.6465 15.7636 18.9695 15.7636 18.9695C17.1493 17.5839 19.2165 17.2311 20.7914 18.1093L22.5373 19.0851C24.9169 20.4123 25.1976 23.7481 23.1063 25.8409C21.8498 27.0959 20.3095 28.0747 18.6085 28.1378C15.7441 28.2474 10.8785 27.5223 5.99782 22.6431C1.11869 17.7625 0.393571 12.8969 0.503164 10.0325C0.567718 8.33151 1.54505 6.7912 2.80011 5.53464C4.89289 3.44337 8.22871 3.7241 9.55584 6.10512L9.55734 6.10362ZM14.3944 0.945249C14.4427 0.65055 14.6059 0.387034 14.8482 0.212532C15.0906 0.038029 15.3922 -0.0332058 15.687 0.0144599C15.7246 0.0219662 15.8477 0.0444853 15.9122 0.059498C16.0398 0.0865209 16.2185 0.131559 16.4407 0.194613C16.8866 0.325223 17.5096 0.539905 18.2572 0.882196C19.7525 1.56828 21.7417 2.76779 23.8074 4.83204C25.8732 6.89779 27.0727 8.88848 27.7588 10.3837C28.1011 11.1314 28.3142 11.7529 28.4449 12.2003C28.5107 12.4251 28.5673 12.6525 28.6145 12.8819L28.622 12.9284C28.6714 13.2257 28.602 13.5305 28.4287 13.7771C28.2555 14.0237 27.9922 14.1923 27.6957 14.2465C27.4018 14.2943 27.1009 14.2236 26.8589 14.05C26.6169 13.8764 26.4536 13.614 26.4046 13.3202C26.3739 13.1543 26.3333 12.9904 26.283 12.8293C26.1296 12.3137 25.939 11.81 25.7125 11.322C25.127 10.046 24.0731 8.28347 22.2146 6.42489C20.3575 4.56632 18.5935 3.51393 17.3174 2.92843C16.83 2.70207 16.3267 2.5114 15.8116 2.35795C15.6537 2.31338 15.4945 2.27333 15.3342 2.23784C15.0391 2.1891 14.7749 2.02622 14.5988 1.78438C14.4227 1.54254 14.3487 1.24114 14.3929 0.945249H14.3944Z" fill="#FEA918"/>
<path fill-rule="evenodd" clip-rule="evenodd" d="M14.7337 6.12464C14.7742 5.98238 14.8423 5.84948 14.9342 5.73355C15.026 5.61762 15.1398 5.52092 15.2691 5.44898C15.3983 5.37704 15.5405 5.33127 15.6874 5.31428C15.8343 5.2973 15.9832 5.30943 16.1254 5.34998L16.1344 5.35299L16.1464 5.35599L16.1764 5.365L16.2605 5.39502C16.6595 5.54873 17.0447 5.73606 17.412 5.955C18.1461 6.39037 19.149 7.11098 20.3275 8.29098C21.506 9.46947 22.2281 10.4723 22.6635 11.2064C22.8811 11.5743 23.0253 11.873 23.1183 12.0922C23.1683 12.2069 23.2133 12.3236 23.2535 12.442L23.261 12.472L23.2655 12.484V12.4885L23.267 12.49C23.267 12.49 23.267 12.493 22.186 12.8023L23.267 12.493C23.3432 12.7771 23.3053 13.0797 23.1612 13.3362C23.0172 13.5927 22.7786 13.7826 22.4963 13.8654C22.2141 13.9481 21.9107 13.9172 21.651 13.7791C21.3913 13.641 21.1959 13.4068 21.1066 13.1266L21.1021 13.1116C20.9966 12.8501 20.8711 12.5972 20.7268 12.3549C20.3905 11.7889 19.7855 10.9332 18.7346 9.88233C17.6837 8.83144 16.8295 8.22792 16.2635 7.89314C16.0213 7.74882 15.7683 7.62334 15.5069 7.51782L15.4919 7.51182C15.2083 7.42655 14.9697 7.233 14.8278 6.97308C14.6859 6.71316 14.6521 6.4093 14.7337 6.12464Z" fill="#FEA918"/>
</svg>
