<svg width="54" height="54" viewBox="0 0 70 54" fill="none" xmlns="http://www.w3.org/2000/svg">
<path d="M57.939 23.9974V22.4792C57.939 16.4983 55.8052 11.3225 51.5376 6.95186C47.27 2.5812 42.2163 0.395874 36.3765 0.395874C31.2554 0.395874 26.7183 2.02912 22.7651 5.29561C18.812 8.56211 16.3413 12.7257 15.353 17.7865C11.0405 18.3386 7.46924 20.2939 4.63916 23.6524C1.80908 27.0109 0.394043 30.9445 0.394043 35.4532C0.394043 40.3299 2.10107 44.5395 5.51514 48.0821C8.9292 51.6246 12.9722 53.3959 17.644 53.3959H57.939C61.2632 52.6598 64.0034 50.9115 66.1597 48.1511C68.3159 45.3907 69.394 42.2162 69.394 38.6276C69.394 35.1311 68.3159 31.9796 66.1597 29.1732C64.0034 26.3668 61.2632 24.6415 57.939 23.9974ZM57.939 47.461H17.644C14.4995 47.461 11.8042 46.2648 9.55811 43.8724C7.31201 41.4801 6.18896 38.6736 6.18896 35.4532C6.18896 32.6007 7.33447 30.0934 9.62549 27.931C11.9165 25.7687 14.5894 24.4575 17.644 23.9974C18.0034 23.9974 18.4976 23.4914 19.1265 22.4792L20.4741 18.0625C21.1929 14.474 23.0571 11.6216 26.0669 9.50525C29.0767 7.38893 32.5132 6.33077 36.3765 6.33077C40.689 6.33077 44.395 7.91801 47.4946 11.0925C50.5942 14.267 52.144 18.0625 52.144 22.4792V26.8959C52.144 27.724 52.436 28.4141 53.02 28.9662C53.604 29.5183 54.2554 29.7943 54.9741 29.7943H56.7261C58.7026 30.2544 60.3423 31.3125 61.645 32.9688C62.9478 34.625 63.5991 36.5113 63.5991 38.6276C63.5991 40.744 63.105 42.6533 62.1167 44.3555C61.1284 46.0578 59.7358 47.0929 57.939 47.461Z" fill="#232323"/>
</svg>
