<svg width="75" height="68" viewBox="0 0 75 68" fill="none" xmlns="http://www.w3.org/2000/svg">
<path d="M10.9496 33.8959H63.8385M10.9496 33.8959C8.94574 33.8959 7.02395 33.0925 5.60701 31.6626C4.19007 30.2326 3.39404 28.2931 3.39404 26.2709V11.0209C3.39404 8.9986 4.19007 7.05915 5.60701 5.62918C7.02395 4.19922 8.94574 3.39587 10.9496 3.39587H63.8385C65.8423 3.39587 67.7641 4.19922 69.1811 5.62918C70.598 7.05915 71.394 8.9986 71.394 11.0209V26.2709C71.394 28.2931 70.598 30.2326 69.1811 31.6626C67.7641 33.0925 65.8423 33.8959 63.8385 33.8959M10.9496 33.8959C8.94574 33.8959 7.02395 34.6992 5.60701 36.1292C4.19007 37.5592 3.39404 39.4986 3.39404 41.5209V56.7709C3.39404 58.7931 4.19007 60.7326 5.60701 62.1626C7.02395 63.5925 8.94574 64.3959 10.9496 64.3959H63.8385C65.8423 64.3959 67.7641 63.5925 69.1811 62.1626C70.598 60.7326 71.394 58.7931 71.394 56.7709V41.5209C71.394 39.4986 70.598 37.5592 69.1811 36.1292C67.7641 34.6992 65.8423 33.8959 63.8385 33.8959M56.2829 18.6459H56.3207M56.2829 49.1459H56.3207" stroke="#232323" stroke-width="6" stroke-linecap="round" stroke-linejoin="round"/>
</svg>
