<svg width="67" height="67" viewBox="0 0 67 67" fill="none" xmlns="http://www.w3.org/2000/svg">
<path d="M6.55904 30.3955C7.14446 25.1775 9.2371 20.243 12.5813 16.195C15.9255 12.147 20.3763 9.16081 25.39 7.60125C21.3103 14.5432 18.942 22.3567 18.481 30.3955H6.55904ZM30.37 0.533181C13.564 2.0572 0.394043 16.1903 0.394043 33.3955C0.394043 50.6007 13.564 64.7309 30.37 66.2579L30.394 66.2879L31.669 66.3509C32.2436 66.3791 32.8188 66.3941 33.394 66.3959C33.9693 66.3955 34.5445 66.3805 35.119 66.3509L36.394 66.2909L36.418 66.2609C53.224 64.7279 66.394 50.6007 66.394 33.3955C66.394 16.1903 53.224 2.0572 36.418 0.533181L36.394 0.503181L35.116 0.44018C33.9688 0.381105 32.8193 0.381105 31.672 0.44018L30.394 0.500181L30.37 0.530181V0.533181ZM33.4 6.39524C38.6382 13.3588 41.7297 21.7001 42.295 30.3955H24.493C25.0593 21.6997 28.1518 13.3584 33.391 6.39524H33.394H33.4ZM18.478 36.3956C18.958 44.6756 21.418 52.4307 25.387 59.1898C20.3733 57.6302 15.9225 54.644 12.5783 50.596C9.2341 46.548 7.14146 41.6135 6.55604 36.3956H18.478ZM33.388 60.3958C28.1488 53.4326 25.0563 45.0913 24.49 36.3956H42.292C41.7258 45.0913 38.6333 53.4326 33.394 60.3958H33.388ZM41.398 59.1898C45.4766 52.2476 47.8439 44.4341 48.304 36.3956H60.226C59.6406 41.6135 57.548 46.548 54.2038 50.596C50.8596 54.644 46.4088 57.6302 41.395 59.1898H41.398ZM48.304 30.3955C47.824 22.1154 45.364 14.3603 41.395 7.60125C46.4093 9.16032 50.8608 12.1463 54.2056 16.1944C57.5503 20.2424 59.6434 25.1771 60.229 30.3955H48.307H48.304Z" fill="#FEA918"/>
</svg>
