<svg width="26" height="31" viewBox="0 0 26 31" fill="none" xmlns="http://www.w3.org/2000/svg">
<path d="M13.1652 0.449707C16.4927 0.449707 19.684 1.77155 22.0369 4.12445C24.3898 6.47735 25.7116 9.66856 25.7116 12.9961C25.7116 18.2977 21.9863 24.0755 14.6322 30.3911C14.2233 30.7424 13.7019 30.9353 13.1628 30.9348C12.6238 30.9344 12.1027 30.7405 11.6944 30.3885L11.208 29.9664C4.17949 23.8155 0.618896 18.1793 0.618896 12.9961C0.618896 9.66856 1.94074 6.47735 4.29364 4.12445C6.64654 1.77155 9.83775 0.449707 13.1652 0.449707ZM13.1652 8.17054C11.8854 8.17054 10.6581 8.67894 9.75309 9.5839C8.84813 10.4889 8.33973 11.7163 8.33973 12.9961C8.33973 14.2759 8.84813 15.5033 9.75309 16.4082C10.6581 17.3132 11.8854 17.8216 13.1652 17.8216C14.4451 17.8216 15.6724 17.3132 16.5774 16.4082C17.4824 15.5033 17.9908 14.2759 17.9908 12.9961C17.9908 11.7163 17.4824 10.4889 16.5774 9.5839C15.6724 8.67894 14.4451 8.17054 13.1652 8.17054Z" fill="#FEA918"/>
</svg>
