<svg width="111" height="107" viewBox="0 0 111 107" fill="none" xmlns="http://www.w3.org/2000/svg">
<path id="Vector" d="M38.747 23.4675V101.429M72.4939 3V81.7429M5 35.1159C5 26.8254 5 22.6857 7.21043 20.2672C7.99272 19.4068 8.94442 18.7175 10.0058 18.2424C12.998 16.915 16.9296 18.2255 24.7926 20.8465C30.7939 22.8488 33.7918 23.85 36.829 23.7431C37.9432 23.7065 39.051 23.5596 40.1362 23.3044C43.0891 22.6014 45.7213 20.8465 50.9859 17.3425L58.7589 12.1567C65.5083 7.65708 68.8774 5.40728 72.747 4.89545C76.6167 4.37238 80.4638 5.65476 88.1525 8.21953L94.7051 10.4018C100.273 12.2579 103.057 13.186 104.649 15.3964C106.241 17.6068 106.241 20.5428 106.241 26.4091V72.1307C106.241 80.4155 106.241 84.5608 104.03 86.9793C103.247 87.8356 102.295 88.5211 101.235 88.9929C98.2429 90.3259 94.3114 89.0154 86.4483 86.3944C80.447 84.3921 77.4491 83.3909 74.4119 83.4978C73.2977 83.5344 72.1899 83.6814 71.1047 83.9365C68.1518 84.6395 65.5196 86.3944 60.255 89.8984L52.482 95.0842C45.7326 99.5838 42.3635 101.834 38.4939 102.345C34.6242 102.869 30.7771 101.586 23.0884 99.0214L16.5358 96.8391C10.9676 94.983 8.18346 94.0549 6.59173 91.8445C5 89.6341 5 86.6925 5 80.8317V35.1102V35.1159Z" stroke="#FEA918" stroke-width="8.5"/>
</svg>
