<svg width="38" height="30" viewBox="0 0 38 30" fill="none" xmlns="http://www.w3.org/2000/svg">
<path d="M19.0048 0.769536C12.189 0.769536 6.00375 3.4418 1.42487 7.78048C1.15464 8.05071 0.989502 8.42603 0.989502 8.84638C0.989502 9.26674 1.15464 9.64206 1.42487 9.91229L5.14803 13.6354C5.42923 13.9135 5.80793 14.0707 6.20337 14.0735C6.59881 14.0763 6.9797 13.9245 7.26482 13.6505C8.45083 12.5395 9.80197 11.6087 11.2582 10.8731C11.7536 10.6329 12.0989 10.1225 12.0989 9.52196V4.86801C14.2758 4.1474 16.5877 3.77208 19.0048 3.77208C21.3918 3.77208 23.7188 4.1474 25.8956 4.853V9.50694C25.8956 10.0924 26.2409 10.6179 26.7363 10.8581C28.2076 11.5937 29.5137 12.5395 30.7447 13.6354C31.015 13.9057 31.3903 14.0558 31.7656 14.0558C32.216 14.0558 32.5913 13.8907 32.8615 13.6204L36.5847 9.89727C36.8549 9.62705 37.02 9.25173 37.02 8.83137C37.02 8.41101 36.8399 8.05071 36.5697 7.78048C31.8316 3.27571 25.5426 0.765488 19.0048 0.769536ZM14.501 6.77463V11.2784C14.501 11.2784 5.49332 18.7848 5.49332 23.2886V29.2937H32.5162V23.2886C32.5162 18.7848 23.5086 11.2784 23.5086 11.2784V6.77463H20.506V9.77717H17.5035V6.77463H14.501ZM19.0048 14.281C20.5974 14.281 22.1248 14.9137 23.251 16.0398C24.3772 17.166 25.0099 18.6934 25.0099 20.2861C25.0099 21.8787 24.3772 23.4061 23.251 24.5323C22.1248 25.6585 20.5974 26.2912 19.0048 26.2912C17.4121 26.2912 15.8847 25.6585 14.7585 24.5323C13.6324 23.4061 12.9997 21.8787 12.9997 20.2861C12.9997 18.6934 13.6324 17.166 14.7585 16.0398C15.8847 14.9137 17.4121 14.281 19.0048 14.281ZM19.0048 16.5329C18.0094 16.5329 17.0547 16.9283 16.3509 17.6322C15.647 18.336 15.2516 19.2907 15.2516 20.2861C15.2516 21.2815 15.647 22.2361 16.3509 22.94C17.0547 23.6438 18.0094 24.0393 19.0048 24.0393C20.0002 24.0393 20.9548 23.6438 21.6587 22.94C22.3625 22.2361 22.758 21.2815 22.758 20.2861C22.758 19.2907 22.3625 18.336 21.6587 17.6322C20.9548 16.9283 20.0002 16.5329 19.0048 16.5329Z" fill="#FEA918"/>
</svg>
