<svg width="111" height="111" viewBox="0 0 111 111" fill="none" xmlns="http://www.w3.org/2000/svg">
<path id="Vector" d="M61.1103 5C61.1103 5 73.4549 6.12224 89.1664 21.8337C104.878 37.5451 106 49.8897 106 49.8897M62.2718 24.8413C62.2718 24.8413 67.8269 26.4236 76.1595 34.7563C84.4922 43.0889 86.0802 48.644 86.0802 48.644M38.8786 23.6068L42.5203 30.1326C45.8029 36.0244 44.4842 43.7455 39.3107 48.9246C39.3107 48.9246 33.0261 55.2036 44.4169 66.5887C55.7908 77.9627 62.0754 71.6949 62.0754 71.6949C67.2545 66.5158 74.9812 65.1971 80.8674 68.4797L87.3932 72.127C96.287 77.0873 97.3363 89.5554 89.5199 97.3775C84.8233 102.068 79.0662 105.727 72.7086 105.963C62.0024 106.372 43.8165 103.662 25.5744 85.4256C7.33797 67.1835 4.62776 48.9976 5.03737 38.2914C5.27866 31.9338 8.93156 26.1767 13.6225 21.4801C21.4446 13.6637 33.9127 14.713 38.873 23.6124L38.8786 23.6068Z" stroke="#FEA918" stroke-width="8.5" stroke-linecap="round"/>
</svg>
