<svg width="25" height="25" viewBox="0 0 25 25" fill="none" xmlns="http://www.w3.org/2000/svg">
<path id="Vector" d="M4.89907 0C2.20496 0 0 2.20491 0 4.89907V20.1017C0 22.7958 2.20491 25 4.89907 25H20.1017C22.7959 25 25 22.7959 25 20.1017V4.89907C25 2.20496 22.7959 0 20.1017 0H4.89907ZM6.13125 4.1255C7.42302 4.1255 8.21869 4.97352 8.24325 6.08824C8.24325 7.17834 7.42297 8.05019 6.10627 8.05019H6.08203C4.81485 8.05019 3.99582 7.17839 3.99582 6.08824C3.99582 4.97355 4.83964 4.1255 6.13123 4.1255H6.13125ZM17.2631 9.33552C17.2631 9.33552 17.2631 9.33553 17.2631 9.33553C19.7474 9.33554 21.6098 10.9593 21.6098 14.4487V19.075C21.6098 20.1176 20.7646 20.9627 19.722 20.9627C18.6795 20.9627 17.8343 20.1176 17.8343 19.075V14.8854C17.8343 13.3582 17.2879 12.3163 15.9216 12.3163C14.8785 12.3163 14.2568 13.0186 13.9838 13.697C13.8841 13.9397 13.8596 14.2787 13.8596 14.6182V19.0795C13.8596 20.1196 13.0164 20.9627 11.9764 20.9627C10.9328 20.9627 10.0881 20.1172 10.0921 19.0736C10.1001 16.9933 10.1104 13.6614 10.1043 11.531C10.1013 10.4788 10.9639 9.60195 12.0161 9.60195H13.4932C13.696 9.60195 13.8604 9.76634 13.8604 9.96913C13.8604 10.3349 14.3782 10.5022 14.6504 10.258C15.2113 9.75493 16.0266 9.33551 17.2631 9.3355C17.2631 9.3355 17.2631 9.33551 17.2631 9.33552ZM4.21852 11.4905C4.21852 10.4479 5.06369 9.60277 6.10626 9.60277C7.14882 9.60277 7.99399 10.4479 7.99399 11.4905V19.0751C7.99399 20.1176 7.14882 20.9628 6.10626 20.9628C5.06369 20.9628 4.21852 20.1176 4.21852 19.0751V11.4905Z" fill="#FEA918"/>
</svg>
